<?xml version="1.0" encoding="utf-8"?>
<!-- Generator: Adobe Illustrator 19.0.0, SVG Export Plug-In . SVG Version: 6.00 Build 0)  -->
<svg version="1.1" id="Layer_1" xmlns="http://www.w3.org/2000/svg" xmlns:xlink="http://www.w3.org/1999/xlink" x="0px" y="0px"
	 viewBox="0 0 50 50" style="enable-background:new 0 0 50 50;" xml:space="preserve">
<style type="text/css">
	.st0{fill:#FFFFFF;}
</style>
<path d="M25,1C15.2,1,7.3,8.8,7.3,18.4C7.3,33.9,25,49,25,49s17.7-15.4,17.7-30.6C42.7,8.8,34.8,1,25,1z"/>
<path id="XMLID_4_" class="st0" d="M35.6,20.3c-0.7,5.3-5.1,9.3-10.6,9.3c-5.9,0-10.7-4.8-10.7-10.7c0-5.9,4.8-10.7,10.7-10.7
	c5.3,0,9.8,3.9,10.5,9l4.4,0C38.9,9.9,32.8,4,25,4c-8.3,0-15,6.7-15,15c0,8.3,6.7,15,15,15c7.8,0,14.2-6,15-13.7L35.6,20.3z"/>
<path id="XMLID_3_" class="st0" d="M33.6,20.3c-0.7,4.2-4.3,7.4-8.6,7.4c-4.8,0-8.7-3.9-8.7-8.7c0-4.8,3.9-8.7,8.7-8.7
	c4.3,0,7.8,3,8.5,7.1l-4.9,0c-0.6-1.4-2-2.3-3.6-2.3c-2.2,0-3.9,1.8-3.9,3.9c0,2.2,1.8,3.9,3.9,3.9c1.7,0,3.2-1.1,3.7-2.6L33.6,20.3
	z"/>
</svg>
